<svg width="491" height="491" viewBox="0 0 491 491" fill="none" xmlns="http://www.w3.org/2000/svg">
<path d="M233.878 191.628H256.74V361H233.878V191.628ZM245.47 154.598C240.747 154.598 236.776 152.988 233.556 149.768C230.336 146.548 228.726 142.684 228.726 138.176C228.726 133.883 230.336 130.126 233.556 126.906C236.776 123.686 240.747 122.076 245.47 122.076C250.193 122.076 254.164 123.686 257.384 126.906C260.604 129.911 262.214 133.561 262.214 137.854C262.214 142.577 260.604 146.548 257.384 149.768C254.164 152.988 250.193 154.598 245.47 154.598Z" fill="white"/>
<path d="M233.878 191.628V182.628H224.878V191.628H233.878ZM256.74 191.628H265.74V182.628H256.74V191.628ZM256.74 361V370H265.74V361H256.74ZM233.878 361H224.878V370H233.878V361ZM233.556 149.768L227.192 156.132L233.556 149.768ZM233.556 126.906L227.192 120.542L227.192 120.542L233.556 126.906ZM257.384 126.906L251.02 133.27L251.13 133.38L251.243 133.485L257.384 126.906ZM233.878 200.628H256.74V182.628H233.878V200.628ZM247.74 191.628V361H265.74V191.628H247.74ZM256.74 352H233.878V370H256.74V352ZM242.878 361V191.628H224.878V361H242.878ZM245.47 145.598C243.035 145.598 241.383 144.868 239.92 143.404L227.192 156.132C232.169 161.108 238.459 163.598 245.47 163.598V145.598ZM239.92 143.404C238.369 141.853 237.726 140.27 237.726 138.176H219.726C219.726 145.098 222.303 151.243 227.192 156.132L239.92 143.404ZM237.726 138.176C237.726 136.426 238.274 134.916 239.92 133.27L227.192 120.542C222.398 125.336 219.726 131.34 219.726 138.176H237.726ZM239.92 133.27C241.383 131.806 243.035 131.076 245.47 131.076V113.076C238.459 113.076 232.169 115.566 227.192 120.542L239.92 133.27ZM245.47 131.076C247.905 131.076 249.557 131.806 251.02 133.27L263.748 120.542C258.771 115.566 252.481 113.076 245.47 113.076V131.076ZM251.243 133.485C252.693 134.839 253.214 136.128 253.214 137.854H271.214C271.214 130.994 268.515 124.984 263.525 120.326L251.243 133.485ZM253.214 137.854C253.214 140.289 252.484 141.94 251.02 143.404L263.748 156.132C268.724 151.155 271.214 144.865 271.214 137.854H253.214ZM251.02 143.404C249.557 144.868 247.905 145.598 245.47 145.598V163.598C252.481 163.598 258.771 161.108 263.748 156.132L251.02 143.404Z" fill="white"/>
<circle cx="245.5" cy="245.5" r="228" stroke="white" stroke-width="35"/>
</svg>
